<?xml version="1.0" encoding="utf-8"?>
<!-- Generator: Adobe Illustrator 16.0.4, SVG Export Plug-In . SVG Version: 6.00 Build 0)  -->
<!DOCTYPE svg PUBLIC "-//W3C//DTD SVG 1.1//EN" "http://www.w3.org/Graphics/SVG/1.1/DTD/svg11.dtd">
<svg version="1.1" id="Layer_1" xmlns="http://www.w3.org/2000/svg" xmlns:xlink="http://www.w3.org/1999/xlink" x="0px" y="0px"
	 width="192.204px" height="33.875px" viewBox="0 -0.04 192.204 33.875" enable-background="new 0 -0.04 192.204 33.875"
	 xml:space="preserve">
<g>
	<path fill="#FFFFFF" d="M11.359,26.328v-3.232h-0.284c-6.075,0-10.55-3.411-10.55-9.556S5,3.984,11.075,3.984h0.284V0.751h4.795
		v3.232h0.284c6.074,0,10.55,3.41,10.55,9.556s-4.476,9.556-10.55,9.556h-0.284v3.232H11.359z M11.181,18.62h0.178V8.459h-0.178
		c-3.375,0-5.719,1.599-5.719,5.08S7.807,18.62,11.181,18.62z M16.154,8.459v10.16h0.178c3.375,0,5.719-1.599,5.719-5.08
		s-2.344-5.08-5.719-5.08H16.154z"/>
	<path fill="#FFFFFF" d="M35.473,7.359c5.151,0,8.667,3.623,8.667,9.733c0,6.109-3.517,9.732-8.667,9.732s-8.667-3.623-8.667-9.732
		C26.806,10.982,30.322,7.359,35.473,7.359z M35.473,22.598c2.131,0,4.156-1.598,4.156-5.505c0-3.908-2.025-5.507-4.156-5.507
		s-4.156,1.599-4.156,5.507C31.317,21,33.342,22.598,35.473,22.598z"/>
	<path fill="#FFFFFF" d="M44.67,33.432V7.856h4.227v1.599c1.03-1.243,2.665-2.096,4.511-2.096c4.796,0,7.673,4.014,7.673,9.733
		c0,5.753-2.877,9.732-7.673,9.732c-1.669,0-3.019-0.709-4.191-1.918v8.525H44.67z M52.698,22.598c2.131,0,3.836-1.883,3.836-5.505
		c0-3.624-1.705-5.507-3.836-5.507c-2.096,0-3.801,1.883-3.801,5.507C48.897,20.715,50.602,22.598,52.698,22.598z"/>
	<path fill="#FFFFFF" d="M61.611,7.856h5.968l4.618,12.433l5.009-12.433h5.542v18.472H78.2v-10.48l-4.227,10.48h-3.872
		l-4.085-10.834v10.834h-4.405V7.856z"/>
	<path fill="#FFFFFF" d="M83.098,21.141c0-3.623,3.126-5.505,7.068-6.429c1.314-0.284,1.989-0.426,3.269-0.71v-0.284
		c0-1.35-1.065-2.132-2.558-2.132c-1.457,0-2.735,0.782-2.735,2.238h-4.369c0-4.085,3.232-6.465,7.282-6.465
		c4.76,0,6.927,3.196,6.927,6.678v4.974c0,2.308,0.106,5.185,0.64,7.318h-4.44l-0.32-1.67c-1.278,1.35-2.806,1.988-4.866,1.988
		C85.335,26.646,83.098,24.41,83.098,21.141z M93.435,17.874c-0.889,0.178-1.74,0.426-2.558,0.604
		c-2.025,0.497-3.162,1.314-3.162,2.486c0,0.783,0.604,1.527,1.954,1.527c1.74,0,3.766-1.242,3.766-3.729V17.874z"/>
	<path fill="#FFFFFF" d="M113.963,12.047h-5.577v14.316h-4.547V12.047h-5.577V7.856h15.701V12.047z"/>
	<path fill="#FFFFFF" d="M143.726,13.54c0,7.353-4.688,13.285-12.574,13.285c-7.887,0-12.575-5.932-12.575-13.285
		s4.688-13.285,12.575-13.285C139.037,0.254,143.726,6.187,143.726,13.54z M138.824,13.54c0-5.08-3.162-8.881-7.673-8.881
		c-4.512,0-7.673,3.801-7.673,8.881s3.126,8.88,7.673,8.88C135.662,22.42,138.824,18.62,138.824,13.54z"/>
	<path fill="#FFFFFF" d="M151.964,7.856l7.353,18.472h-18.436l7.317-18.472H151.964z M147.133,22.137h5.896l-2.948-7.816
		L147.133,22.137z"/>
	<path fill="#FFFFFF" d="M158.958,7.856h4.547v10.656l6.82-10.656h4.369v18.472h-4.547v-10.55l-6.82,10.55h-4.369V7.856z"/>
	<path fill="#FFFFFF" d="M176.11,7.856h4.512v7.033h6.536V7.856h4.512v18.472h-4.512v-7.176h-6.536v7.176h-4.512V7.856z"/>
</g>
</svg>
