<?xml version="1.0" encoding="utf-8"?>
<!-- Generator: Adobe Illustrator 16.0.4, SVG Export Plug-In . SVG Version: 6.00 Build 0)  -->
<!DOCTYPE svg PUBLIC "-//W3C//DTD SVG 1.1//EN" "http://www.w3.org/Graphics/SVG/1.1/DTD/svg11.dtd">
<svg version="1.1" id="Layer_1" xmlns="http://www.w3.org/2000/svg" xmlns:xlink="http://www.w3.org/1999/xlink" x="0px" y="0px"
	 width="198.5px" height="38.5px" viewBox="0 0 198.5 38.5" enable-background="new 0 0 198.5 38.5" xml:space="preserve">
<g>
	<path fill="#FFFFFF" d="M11.924,27.494V24.12h-0.296c-6.34,0-11.012-3.56-11.012-9.975c0-6.415,4.672-9.974,11.012-9.974h0.296
		V0.797h5.006v3.374h0.297c6.34,0,11.012,3.56,11.012,9.974c0,6.416-4.672,9.975-11.012,9.975H16.93v3.374H11.924z M11.739,19.448
		h0.185V8.843h-0.185c-3.522,0-5.97,1.669-5.97,5.302C5.769,17.779,8.216,19.448,11.739,19.448z M16.93,8.843v10.605h0.186
		c3.522,0,5.97-1.669,5.97-5.303c0-3.633-2.447-5.302-5.97-5.302H16.93z"/>
	<path fill="#FFFFFF" d="M37.098,7.693c5.376,0,9.047,3.782,9.047,10.16c0,6.377-3.671,10.161-9.047,10.161
		s-9.047-3.783-9.047-10.161C28.05,11.476,31.721,7.693,37.098,7.693z M37.098,23.602c2.225,0,4.338-1.67,4.338-5.749
		c0-4.079-2.113-5.747-4.338-5.747s-4.338,1.668-4.338,5.747C32.76,21.932,34.873,23.602,37.098,23.602z"/>
	<path fill="#FFFFFF" d="M46.698,34.91V8.212h4.413v1.669c1.075-1.298,2.781-2.188,4.709-2.188c5.005,0,8.009,4.19,8.009,10.16
		c0,6.006-3.003,10.161-8.009,10.161c-1.743,0-3.152-0.742-4.375-2.003v8.899H46.698z M55.078,23.602
		c2.225,0,4.004-1.966,4.004-5.749c0-3.782-1.78-5.747-4.004-5.747c-2.188,0-3.967,1.965-3.967,5.747
		C51.111,21.635,52.891,23.602,55.078,23.602z"/>
	<path fill="#FFFFFF" d="M64.383,8.212h6.229l4.82,12.978L80.66,8.212h5.784v19.281h-4.746V16.555l-4.413,10.938h-4.042
		L68.98,16.185v11.309h-4.598L64.383,8.212L64.383,8.212z"/>
	<path fill="#FFFFFF" d="M86.812,22.08c0-3.782,3.263-5.747,7.379-6.711c1.372-0.296,2.076-0.445,3.411-0.741v-0.297
		c0-1.409-1.112-2.225-2.67-2.225c-1.52,0-2.855,0.816-2.855,2.336h-4.561c0-4.264,3.374-6.749,7.601-6.749
		c4.969,0,7.23,3.337,7.23,6.971v5.191c0,2.41,0.11,5.414,0.666,7.638h-4.635l-0.333-1.743c-1.335,1.409-2.93,2.076-5.08,2.076
		C89.148,27.827,86.812,25.491,86.812,22.08z M97.603,18.669c-0.927,0.186-1.817,0.445-2.67,0.63c-2.113,0.52-3.3,1.372-3.3,2.596
		c0,0.815,0.63,1.595,2.04,1.595c1.817,0,3.93-1.298,3.93-3.895V18.669z"/>
	<path fill="#FFFFFF" d="M119.031,12.588h-5.821v14.943h-4.746V12.588h-5.821V8.212h16.39L119.031,12.588L119.031,12.588z"/>
	<path fill="#FFFFFF" d="M144.911,14.145c0,7.675-4.896,13.869-13.126,13.869s-13.126-6.193-13.126-13.869
		s4.896-13.867,13.126-13.867S144.911,6.47,144.911,14.145z M139.794,14.145c0-5.302-3.3-9.27-8.009-9.27s-8.01,3.967-8.01,9.27
		s3.264,9.27,8.01,9.27C136.494,23.415,139.794,19.448,139.794,14.145z"/>
	<path fill="#FFFFFF" d="M153.512,8.212l7.674,19.281h-19.242l7.638-19.281H153.512z M148.468,23.118h6.155l-3.077-8.157
		L148.468,23.118z"/>
	<path fill="#FFFFFF" d="M160.812,8.212h4.746v11.124l7.118-11.124h4.562v19.281h-4.746V16.481l-7.119,11.012h-4.561V8.212z"/>
	<path fill="#FFFFFF" d="M178.719,8.212h4.709v7.342h6.822V8.212h4.709v19.281h-4.709v-7.49h-6.822v7.49h-4.709V8.212z"/>
</g>
</svg>
