<?xml version="1.0" encoding="utf-8"?>
<!-- Generator: Adobe Illustrator 16.0.4, SVG Export Plug-In . SVG Version: 6.00 Build 0)  -->
<!DOCTYPE svg PUBLIC "-//W3C//DTD SVG 1.1//EN" "http://www.w3.org/Graphics/SVG/1.1/DTD/svg11.dtd">
<svg version="1.1" id="Layer_1" xmlns="http://www.w3.org/2000/svg" xmlns:xlink="http://www.w3.org/1999/xlink" x="0px" y="0px"
	 width="158.583px" height="28.583px" viewBox="0 0 158.583 28.583" enable-background="new 0 0 158.583 28.583"
	 xml:space="preserve">
<g>
	<path fill="#F86057" d="M10.339,22.176v-2.727h-0.24c-5.125,0-8.9-2.877-8.9-8.061c0-5.185,3.776-8.062,8.9-8.062h0.24V0.599h4.046
		v2.727h0.24c5.125,0,8.9,2.877,8.9,8.062c0,5.184-3.776,8.061-8.9,8.061h-0.24v2.727H10.339z M10.189,15.673h0.149V7.102h-0.149
		c-2.847,0-4.825,1.349-4.825,4.286S7.342,15.673,10.189,15.673z M14.385,7.102v8.571h0.15c2.847,0,4.825-1.349,4.825-4.286
		s-1.978-4.286-4.825-4.286H14.385z"/>
	<path fill="#F86057" d="M30.839,6.173c4.345,0,7.312,3.057,7.312,8.211c0,5.155-2.967,8.211-7.312,8.211
		c-4.346,0-7.312-3.056-7.312-8.211C23.526,9.23,26.493,6.173,30.839,6.173z M30.839,19.03c1.798,0,3.506-1.349,3.506-4.646
		c0-3.296-1.708-4.645-3.506-4.645c-1.798,0-3.506,1.349-3.506,4.645C27.333,17.681,29.041,19.03,30.839,19.03z"/>
	<path fill="#F86057" d="M38.752,28.17V6.593h3.566v1.349c0.869-1.049,2.248-1.768,3.806-1.768c4.045,0,6.473,3.386,6.473,8.211
		c0,4.855-2.428,8.211-6.473,8.211c-1.409,0-2.547-0.6-3.536-1.619v7.193H38.752z M45.524,19.03c1.798,0,3.237-1.589,3.237-4.646
		s-1.438-4.645-3.237-4.645c-1.768,0-3.207,1.588-3.207,4.645S43.756,19.03,45.524,19.03z"/>
	<path fill="#F86057" d="M53.197,6.593h5.034l3.896,10.489l4.226-10.489h4.675v15.583h-3.836v-8.84l-3.566,8.84h-3.267l-3.446-9.14
		v9.14h-3.716V6.593z"/>
	<path fill="#F86057" d="M71.479,17.801c0-3.057,2.637-4.646,5.964-5.425c1.109-0.24,1.678-0.359,2.757-0.599v-0.24
		c0-1.139-0.899-1.798-2.158-1.798c-1.229,0-2.308,0.66-2.308,1.888h-3.686c0-3.446,2.727-5.454,6.144-5.454
		c4.016,0,5.844,2.697,5.844,5.634v4.195c0,1.948,0.09,4.376,0.54,6.173h-3.746l-0.27-1.408c-1.079,1.139-2.368,1.678-4.105,1.678
		C73.367,22.445,71.479,20.559,71.479,17.801z M80.2,15.043c-0.749,0.15-1.468,0.36-2.158,0.51c-1.708,0.42-2.667,1.109-2.667,2.098
		c0,0.659,0.509,1.289,1.648,1.289c1.468,0,3.176-1.049,3.176-3.146V15.043z"/>
	<path fill="#F86057" d="M97.672,10.129h-4.705v12.078h-3.836V10.129h-4.705V6.593h13.246V10.129z"/>
	<path fill="#F86057" d="M109.03,6.173c4.346,0,7.312,3.057,7.312,8.211c0,5.155-2.967,8.211-7.312,8.211s-7.312-3.056-7.312-8.211
		C101.718,9.23,104.685,6.173,109.03,6.173z M109.03,19.03c1.798,0,3.506-1.349,3.506-4.646c0-3.296-1.708-4.645-3.506-4.645
		s-3.507,1.349-3.507,4.645C105.523,17.681,107.232,19.03,109.03,19.03z"/>
	<path fill="#F86057" d="M124.195,6.593l6.204,15.583h-15.554l6.173-15.583H124.195z M120.12,18.64h4.975l-2.487-6.593L120.12,18.64
		z"/>
	<path fill="#F86057" d="M130.25,6.593h3.836v8.991l5.754-8.991h3.687v15.583h-3.836v-8.9l-5.754,8.9h-3.687V6.593z"/>
	<path fill="#F86057" d="M144.875,6.593h3.807v5.934h5.514V6.593h3.806v15.583h-3.806v-6.053h-5.514v6.053h-3.807V6.593z"/>
</g>
</svg>
