<?xml version="1.0" encoding="utf-8"?>
<!-- Generator: Adobe Illustrator 16.0.4, SVG Export Plug-In . SVG Version: 6.00 Build 0)  -->
<!DOCTYPE svg PUBLIC "-//W3C//DTD SVG 1.1//EN" "http://www.w3.org/Graphics/SVG/1.1/DTD/svg11.dtd">
<svg version="1.1" id="Layer_1" xmlns="http://www.w3.org/2000/svg" xmlns:xlink="http://www.w3.org/1999/xlink" x="0px" y="0px"
	 width="151.667px" height="27.167px" viewBox="4.269 4.104 151.667 27.167" enable-background="new 4.269 4.104 151.667 27.167"
	 xml:space="preserve">
<g>
	<path fill="#FFFFFF" d="M13.595,25.246v-2.618h-0.23c-4.921,0-8.547-2.763-8.547-7.742c0-4.979,3.626-7.741,8.547-7.741h0.23V4.526
		h3.885v2.619h0.23c4.921,0,8.547,2.763,8.547,7.741c0,4.979-3.626,7.742-8.547,7.742h-0.23v2.618H13.595z M13.451,19.002h0.144
		v-8.231h-0.144c-2.734,0-4.633,1.295-4.633,4.115C8.818,17.707,10.717,19.002,13.451,19.002z M17.48,10.771v8.231h0.144
		c2.734,0,4.633-1.295,4.633-4.116c0-2.82-1.899-4.115-4.633-4.115H17.48z"/>
	<path fill="#FFFFFF" d="M33.274,9.879c4.173,0,7.021,2.936,7.021,7.885c0,4.951-2.849,7.886-7.021,7.886s-7.022-2.935-7.022-7.886
		C26.252,12.814,29.101,9.879,33.274,9.879z M33.274,22.225c1.727,0,3.367-1.295,3.367-4.461c0-3.165-1.64-4.46-3.367-4.46
		c-1.727,0-3.367,1.295-3.367,4.46C29.907,20.93,31.547,22.225,33.274,22.225z"/>
	<path fill="#FFFFFF" d="M40.868,31.002v-20.72h3.425v1.295c0.834-1.007,2.158-1.698,3.655-1.698c3.885,0,6.216,3.252,6.216,7.885
		c0,4.662-2.331,7.886-6.216,7.886c-1.353,0-2.446-0.575-3.396-1.554v6.906H40.868z M47.372,22.225c1.727,0,3.108-1.525,3.108-4.461
		c0-2.935-1.381-4.46-3.108-4.46c-1.698,0-3.079,1.525-3.079,4.46C44.292,20.699,45.674,22.225,47.372,22.225z"/>
	<path fill="#FFFFFF" d="M54.735,10.282h4.835l3.741,10.073l4.058-10.073h4.489v14.964h-3.684v-8.489l-3.425,8.489h-3.137
		l-3.31-8.777v8.777h-3.568V10.282z"/>
	<path fill="#FFFFFF" d="M72.285,21.045c0-2.936,2.533-4.46,5.727-5.209c1.064-0.23,1.611-0.345,2.647-0.575v-0.23
		c0-1.093-0.863-1.727-2.072-1.727c-1.18,0-2.216,0.633-2.216,1.813h-3.54c0-3.31,2.619-5.238,5.899-5.238
		c3.856,0,5.612,2.59,5.612,5.411v4.029c0,1.871,0.086,4.201,0.518,5.928h-3.597l-0.259-1.352c-1.036,1.094-2.273,1.611-3.942,1.611
		C74.098,25.506,72.285,23.692,72.285,21.045z M80.659,18.397c-0.719,0.144-1.41,0.345-2.072,0.489
		c-1.64,0.402-2.561,1.064-2.561,2.014c0,0.634,0.489,1.238,1.583,1.238c1.41,0,3.05-1.008,3.05-3.021V18.397z"/>
	<path fill="#FFFFFF" d="M97.433,13.678h-4.518v11.598h-3.684V13.678h-4.518v-3.396h12.72V13.678z"/>
	<path fill="#FFFFFF" d="M108.336,9.879c4.173,0,7.021,2.936,7.021,7.885c0,4.951-2.849,7.886-7.021,7.886s-7.022-2.935-7.022-7.886
		C101.314,12.814,104.164,9.879,108.336,9.879z M108.336,22.225c1.727,0,3.367-1.295,3.367-4.461c0-3.165-1.641-4.46-3.367-4.46
		s-3.367,1.295-3.367,4.46C104.969,20.93,106.61,22.225,108.336,22.225z"/>
	<path fill="#FFFFFF" d="M122.895,10.282l5.957,14.964h-14.936l5.928-14.964H122.895z M118.981,21.851h4.777l-2.389-6.331
		L118.981,21.851z"/>
	<path fill="#FFFFFF" d="M128.704,10.282h3.684v8.634l5.525-8.634h3.54v14.964h-3.684V16.7l-5.525,8.546h-3.54V10.282z"/>
	<path fill="#FFFFFF" d="M142.744,10.282h3.655v5.698h5.295v-5.698h3.654v14.964h-3.654v-5.812h-5.295v5.812h-3.655V10.282z"/>
</g>
</svg>
